<svg width="408.7344116210937px" height="214.4px" xmlns="http://www.w3.org/2000/svg" viewBox="45.632794189453136 -32.2 408.7344116210937 214.4" style="background: none;" preserveAspectRatio="xMidYMid"><defs><linearGradient id="editing-glowing-gradient" x1="0.8146601955249185" x2="0.18533980447508147" y1="0.8885729807284856" y2="0.11142701927151444"><stop offset="0" stop-color="#e77817"></stop><stop offset="1" stop-color="#00599e"></stop></linearGradient><filter id="editing-glowing" x="-100%" y="-100%" width="300%" height="300%"><feGaussianBlur in="SourceGraphic" result="blur" stdDeviation="10"></feGaussianBlur><feMerge><feMergeNode in="blur"></feMergeNode><feMergeNode in="SourceGraphic"></feMergeNode></feMerge></filter></defs><g filter="url(#editing-glowing)"><g transform="translate(105.28999137878418, 115.40499925613403)"><path d="M56.40 0L47.27 0L47.27-35.99L47.27-35.99Q47.27-42.86 44.22-46.22L44.22-46.22L44.22-46.22Q41.17-49.58 34.66-49.58L34.66-49.58L34.66-49.58Q26.10-49.58 22.12-44.81L22.12-44.81L22.12-44.81Q18.15-40.04 18.15-29.07L18.15-29.07L18.15 0L8.92 0L8.92-79.78L18.15-79.78L18.15-56.40L18.15-56.40Q18.15-51.78 17.64-48.50L17.64-48.50L18.25-48.50L18.25-48.50Q20.76-52.60 25.38-54.91L25.38-54.91L25.38-54.91Q29.99-57.22 35.79-57.22L35.79-57.22L35.79-57.22Q46.04-57.22 51.22-52.32L51.22-52.32L51.22-52.32Q56.40-47.42 56.40-36.66L56.40-36.66L56.40 0ZM122.74-28.25L122.74-28.25L122.74-28.25Q122.74-14.46 115.77-6.72L115.77-6.72L115.77-6.72Q108.79 1.03 96.49 1.03L96.49 1.03L96.49 1.03Q88.85 1.03 82.95-2.54L82.95-2.54L82.95-2.54Q77.06-6.10 73.88-12.77L73.88-12.77L73.88-12.77Q70.70-19.43 70.70-28.25L70.70-28.25L70.70-28.25Q70.70-41.99 77.57-49.65L77.57-49.65L77.57-49.65Q84.44-57.32 96.85-57.32L96.85-57.32L96.85-57.32Q108.74-57.32 115.74-49.50L115.74-49.50L115.74-49.50Q122.74-41.68 122.74-28.25ZM80.24-28.25L80.24-28.25L80.24-28.25Q80.24-17.64 84.42-12.13L84.42-12.13L84.42-12.13Q88.59-6.61 96.75-6.61L96.75-6.61L96.75-6.61Q104.79-6.61 109.00-12.13L109.00-12.13L109.00-12.13Q113.20-17.64 113.20-28.25L113.20-28.25L113.20-28.25Q113.20-38.86 108.97-44.22L108.97-44.22L108.97-44.22Q104.74-49.58 96.59-49.58L96.59-49.58L96.59-49.58Q80.24-49.58 80.24-28.25ZM218.10 0L208.97 0L208.97-36.25L208.97-36.25Q208.97-49.58 197.54-49.58L197.54-49.58L197.54-49.58Q189.70-49.58 186.01-45.01L186.01-45.01L186.01-45.01Q182.31-40.45 182.31-31.07L182.31-31.07L182.31 0L173.14 0L173.14-36.25L173.14-36.25Q173.14-42.91 170.34-46.25L170.34-46.25L170.34-46.25Q167.55-49.58 161.60-49.58L161.60-49.58L161.60-49.58Q153.81-49.58 150.19-44.81L150.19-44.81L150.19-44.81Q146.58-40.04 146.58-29.17L146.58-29.17L146.58 0L137.35 0L137.35-56.29L144.79-56.29L146.17-48.60L146.68-48.60L146.68-48.60Q149.09-52.71 153.48-55.01L153.48-55.01L153.48-55.01Q157.86-57.32 163.29-57.32L163.29-57.32L163.29-57.32Q176.52-57.32 180.52-47.89L180.52-47.89L181.03-47.89L181.03-47.89Q183.75-52.40 188.44-54.86L188.44-54.86L188.44-54.86Q193.13-57.32 199.08-57.32L199.08-57.32L199.08-57.32Q208.62-57.32 213.36-52.40L213.36-52.40L213.36-52.40Q218.10-47.48 218.10-36.66L218.10-36.66L218.10 0ZM259.48 1.03L259.48 1.03L259.48 1.03Q246.81 1.03 239.61-6.64L239.61-6.64L239.61-6.64Q232.40-14.30 232.40-27.74L232.40-27.74L232.40-27.74Q232.40-41.27 239.12-49.30L239.12-49.30L239.12-49.30Q245.84-57.32 257.27-57.32L257.27-57.32L257.27-57.32Q267.88-57.32 274.19-50.47L274.19-50.47L274.19-50.47Q280.50-43.63 280.50-31.94L280.50-31.94L280.50-26.35L241.94-26.35L241.94-26.35Q242.20-16.77 246.81-11.79L246.81-11.79L246.81-11.79Q251.43-6.82 259.89-6.82L259.89-6.82L259.89-6.82Q264.40-6.82 268.45-7.61L268.45-7.61L268.45-7.61Q272.50-8.41 277.93-10.72L277.93-10.72L277.93-2.61L277.93-2.61Q273.27-0.62 269.17 0.21L269.17 0.21L269.17 0.21Q265.06 1.03 259.48 1.03ZM257.17-49.78L257.17-49.78L257.17-49.78Q250.55-49.78 246.71-45.53L246.71-45.53L246.71-45.53Q242.86-41.27 242.15-33.68L242.15-33.68L270.81-33.68L270.81-33.68Q270.70-41.58 267.17-45.68L267.17-45.68L267.17-45.68Q263.63-49.78 257.17-49.78Z" fill="url(#editing-glowing-gradient)"></path></g></g><style>text {
  font-size: 64px;
  font-family: Arial Black;
  dominant-baseline: central;
  text-anchor: middle;
}</style></svg>